<svg width="20" height="20" fill="none" xmlns="http://www.w3.org/2000/svg"><path d="M10.458 2.866c-.36-.775-.54-1.163-.857-1.196-.317-.032-.562.312-1.052 1l-.126.177c-.14.196-.209.293-.309.352-.1.06-.22.072-.458.1l-.218.024c-.84.094-1.26.14-1.385.433s.128.638.634 1.327l.13.179c.145.195.217.293.243.408.026.115.003.233-.042.47l-.042.216c-.16.833-.24 1.25.001 1.464.24.213.641.082 1.444-.18l.207-.067c.228-.074.342-.112.458-.1.117.013.222.072.433.192l.192.109c.741.421 1.112.631 1.386.47.273-.16.268-.585.258-1.437l-.003-.22c-.003-.242-.005-.362.041-.47.046-.107.134-.188.31-.351l.16-.149c.617-.573.926-.86.855-1.173-.071-.313-.475-.445-1.284-.71l-.21-.067c-.229-.076-.344-.113-.432-.191-.088-.079-.139-.189-.241-.41l-.093-.2z" fill="#fff"/><path fill-rule="evenodd" clip-rule="evenodd" d="M18.873 7.602a.625.625 0 01-.225.855c-4.76 2.776-5.94 7.259-5.94 9.876a.625.625 0 11-1.25 0c0-2.938 1.32-7.9 6.56-10.956a.625.625 0 01.855.225zM9.338 9.399c.332.095.524.44.43.773-.306 1.069-.38 2.62-.331 4.173.048 1.538.212 3.013.347 3.893a.625.625 0 11-1.235.19 35.656 35.656 0 01-.362-4.044c-.049-1.578.017-3.291.378-4.556a.625.625 0 01.773-.429z" fill="#fff"/><path d="M4.278 11.471c-.02-.09.124-.172.192-.11.198.177.465.38.715.447.25.067.583.025.844-.03.09-.02.172.124.11.192-.177.198-.38.466-.447.715-.067.25-.025.583.03.844.019.09-.124.172-.192.11-.198-.177-.466-.38-.716-.447-.25-.067-.583-.025-.843.03-.09.019-.172-.124-.111-.192.178-.198.38-.466.448-.715.067-.25.025-.583-.03-.844z" fill="#fff"/></svg>