<svg width="80" height="80" fill="none" xmlns="http://www.w3.org/2000/svg"><path d="M28.366 6.667h23.267c.775 0 1.37 0 1.889.05 3.692.362 6.715 2.582 7.997 5.573H18.48c1.282-2.991 4.304-5.211 7.997-5.573.52-.05 1.113-.05 1.888-.05zm-7.331 9.077c-4.635 0-8.436 2.8-9.705 6.513a8.585 8.585 0 00-.076.233c1.327-.402 2.709-.664 4.107-.844 3.601-.461 8.152-.461 13.439-.46h22.974c5.286-.001 9.838-.001 13.439.46 1.398.18 2.78.442 4.106.844a8.585 8.585 0 00-.076-.233c-1.268-3.714-5.069-6.513-9.704-6.513H21.035z" fill="#fff" fill-opacity=".12"/><path fill-rule="evenodd" clip-rule="evenodd" d="M51.092 25.14H28.908c-11.25 0-16.874 0-20.034 3.29s-2.416 8.37-.929 18.535l1.41 9.64c1.166 7.97 1.749 11.955 4.74 14.342 2.99 2.387 7.401 2.387 16.223 2.387h19.364c8.822 0 13.233 0 16.224-2.387 2.99-2.387 3.573-6.372 4.739-14.343l1.41-9.639c1.487-10.164 2.23-15.246-.93-18.535-3.159-3.29-8.784-3.29-20.033-3.29zm-2.464 8.744c-4.105-1.754-8.819.885-9.092 5.091-.012.184-.012.413-.012.69v.09c0 .098 0 .186.002.271l-.001 11.714a9.006 9.006 0 00-4.287-1.07c-4.734 0-8.571 3.58-8.571 7.998s3.837 7.999 8.571 7.999 8.571-3.581 8.572-7.999l.001-13.063 3.093 1.54c.262.13.479.238.658.314 4.105 1.754 8.82-.884 9.093-5.09.012-.185.012-.414.012-.69v-.09c0-.113 0-.212-.004-.308-.07-2.078-1.29-3.974-3.221-5.01a10.64 10.64 0 00-.29-.148l-3.866-1.924a14.17 14.17 0 00-.658-.315z" fill="#fff" fill-opacity=".12"/><path d="M46.844 37.52c-1.369-.584-2.94.296-3.03 1.697a9.268 9.268 0 00-.005.514c0 .15 0 .18.002.204.023.693.43 1.325 1.073 1.67l.193.097 3.782 1.882c.357.178.444.22.487.239 1.369.584 2.94-.296 3.031-1.697.003-.044.004-.135.004-.513l-.001-.205c-.024-.693-.43-1.324-1.074-1.67l-4.462-2.217zM35.238 54.67c2.367 0 4.286 1.79 4.286 3.998s-1.919 4-4.286 4c-2.367 0-4.286-1.791-4.286-4 0-2.208 1.919-3.999 4.286-3.999z" fill="#fff" fill-opacity=".12"/></svg>