<svg width="20" height="21" fill="none" xmlns="http://www.w3.org/2000/svg"><path d="M6.458 2.583a.625.625 0 00-1.25 0V3.9c-1.199.096-1.986.332-2.565.91-.578.58-.814 1.367-.91 2.566h16.534c-.096-1.2-.331-1.987-.91-2.565-.578-.579-1.366-.815-2.565-.91V2.582a.625.625 0 10-1.25 0v1.261c-.555-.01-1.176-.01-1.875-.01H8.333c-.699 0-1.32 0-1.875.01v-1.26z" fill="#fff"/><path fill-rule="evenodd" clip-rule="evenodd" d="M1.667 10.5c0-.7 0-1.32.01-1.875h16.646c.01.554.01 1.176.01 1.875v1.667c0 3.142 0 4.714-.976 5.69s-2.548.976-5.69.976H8.333c-3.142 0-4.714 0-5.69-.976s-.976-2.548-.976-5.69V10.5zm12.5 1.667a.833.833 0 100-1.667.833.833 0 000 1.667zm0 3.333a.833.833 0 100-1.667.833.833 0 000 1.667zm-3.334-4.167a.833.833 0 11-1.666 0 .833.833 0 011.666 0zm0 3.334a.833.833 0 11-1.666 0 .833.833 0 011.666 0zm-5-2.5a.833.833 0 100-1.667.833.833 0 000 1.667zm0 3.333a.833.833 0 100-1.667.833.833 0 000 1.667z" fill="#fff"/></svg>