<svg width="16" height="16" fill="none" xmlns="http://www.w3.org/2000/svg"><path d="M5.167 1.667a.5.5 0 10-1 0v1.052c-.96.077-1.59.266-2.053.729-.462.462-.651 1.092-.728 2.052h13.228c-.077-.96-.266-1.59-.728-2.052-.463-.463-1.093-.652-2.053-.729V1.667a.5.5 0 10-1 0v1.008c-.443-.008-.94-.008-1.5-.008H6.667c-.56 0-1.057 0-1.5.008V1.667z" fill="#fff" fill-opacity=".6"/><path fill-rule="evenodd" clip-rule="evenodd" d="M1.333 8c0-.56 0-1.057.009-1.5h13.316c.009.443.009.94.009 1.5v1.333c0 2.514 0 3.771-.781 4.553-.781.78-2.038.78-4.553.78H6.667c-2.514 0-3.772 0-4.553-.78-.78-.781-.78-2.038-.78-4.553V8zm10 1.333a.667.667 0 100-1.333.667.667 0 000 1.333zm0 2.667a.667.667 0 100-1.333.667.667 0 000 1.333zM8.667 8.667a.667.667 0 11-1.334 0 .667.667 0 011.334 0zm0 2.666a.667.667 0 11-1.334 0 .667.667 0 011.334 0zm-4-2a.667.667 0 100-1.333.667.667 0 000 1.333zm0 2.667a.667.667 0 100-1.333.667.667 0 000 1.333z" fill="#fff" fill-opacity=".6"/></svg>