<svg width="16" height="17" fill="none" xmlns="http://www.w3.org/2000/svg"><path d="M10.486 3.09c.956-.96 2.354-.98 3.129-.204.776.78.755 2.187-.202 3.147l-1.616 1.623a.5.5 0 00.708.705l1.616-1.622c1.274-1.28 1.434-3.321.202-4.558-1.233-1.239-3.271-1.077-4.546.203L6.545 5.628c-1.274 1.279-1.434 3.321-.202 4.558a.5.5 0 00.709-.706c-.776-.778-.755-2.186.202-3.146l3.232-3.245z" fill="#fff"/><path d="M9.657 6.814a.5.5 0 10-.709.706c.776.778.755 2.186-.202 3.146l-3.232 3.245c-.956.96-2.355.98-3.129.203-.776-.78-.755-2.187.202-3.147l1.616-1.623a.5.5 0 10-.708-.705L1.879 10.26c-1.275 1.28-1.435 3.322-.202 4.559 1.233 1.239 3.271 1.077 4.546-.203l3.232-3.244c1.274-1.279 1.434-3.321.202-4.558z" fill="#fff"/></svg>