<svg width="28" height="28" fill="none" xmlns="http://www.w3.org/2000/svg"><path fill-rule="evenodd" clip-rule="evenodd" d="M13.118 2.28a6.648 6.648 0 016.406 0c.734.407 1.42 1.063 2.534 2.13a108.177 108.177 0 00.223.214c1.11 1.062 1.797 1.72 2.224 2.428a6.002 6.002 0 010 6.226c-.427.708-1.115 1.366-2.224 2.428l-.114.109-8.7 8.33c-.617.591-1.12 1.073-1.563 1.43-.459.37-.91.655-1.44.808a4.096 4.096 0 01-2.26 0c-.53-.153-.982-.438-1.441-.808-.443-.357-.946-.839-1.563-1.43l-.056-.054c-.617-.59-1.12-1.072-1.494-1.497-.385-.438-.69-.877-.854-1.4a3.712 3.712 0 010-2.225c.164-.523.469-.963.854-1.4.373-.425.877-.907 1.494-1.498l8.575-8.21.091-.088c.431-.414.795-.763 1.216-.957.74-.342 1.6-.342 2.34 0 .421.194.785.543 1.216.957l.091.087.095.09c.428.41.796.76 1.002 1.171.37.734.37 1.592 0 2.326a2.72 2.72 0 01-.456.628c-.165.178-.377.38-.623.617l-8.628 8.26a.875.875 0 11-1.21-1.264l8.61-8.244c.268-.257.443-.424.569-.56a1.08 1.08 0 00.175-.223.831.831 0 000-.753c-.052-.103-.167-.231-.744-.784-.574-.55-.712-.665-.83-.719a1.052 1.052 0 00-.874 0c-.118.054-.255.17-.83.72l-8.547 8.183c-.652.625-1.1 1.055-1.418 1.416-.311.354-.439.578-.499.769a1.97 1.97 0 000 1.177c.06.19.188.414.499.768.318.362.766.792 1.418 1.416.652.624 1.102 1.054 1.48 1.359.368.297.61.426.825.488.421.12.871.12 1.293 0 .215-.062.456-.19.825-.488.378-.305.828-.735 1.48-1.359l8.672-8.303c1.26-1.207 1.758-1.695 2.049-2.177a4.253 4.253 0 000-4.419c-.29-.482-.79-.97-2.05-2.176-1.258-1.205-1.77-1.685-2.279-1.967a4.898 4.898 0 00-4.712 0c-.51.282-1.022.762-2.28 1.967l-6.987 6.69a.875.875 0 11-1.21-1.264l6.987-6.69.11-.105c1.113-1.067 1.799-1.723 2.533-2.13z" fill="#fff"/></svg>