<svg width="16" height="16" fill="none" xmlns="http://www.w3.org/2000/svg"><path fill-rule="evenodd" clip-rule="evenodd" d="M2.781 2.114C2 2.895 2 4.153 2 6.667v2.666c0 2.514 0 3.772.781 4.553.781.78 2.038.78 4.552.78h1.334c2.514 0 3.77 0 4.552-.78.781-.781.781-2.038.781-4.553V6.667c0-2.514 0-3.772-.781-4.553-.781-.78-2.038-.78-4.552-.78H7.333c-2.514 0-3.77 0-4.552.78zm2.052 3.22a.5.5 0 01.5-.5h5.334a.5.5 0 010 1H5.333a.5.5 0 01-.5-.5zm0 2.666a.5.5 0 01.5-.5h5.334a.5.5 0 010 1H5.333a.5.5 0 01-.5-.5zm.5 2.167a.5.5 0 000 1h3.334a.5.5 0 100-1H5.333z" fill="#fff"/></svg>