<svg width="16" height="17" fill="none" xmlns="http://www.w3.org/2000/svg"><path d="M6.81 13.35c.213-.165.405-.358.79-.742l4.93-4.931a6.86 6.86 0 01-2.217-1.49 6.86 6.86 0 01-1.49-2.218L3.893 8.9c-.385.385-.578.577-.743.79a4.38 4.38 0 00-.5.807c-.115.243-.2.5-.373 1.017l-.907 2.722a.707.707 0 00.894.894l2.722-.907c.516-.172.774-.258 1.017-.374a4.33 4.33 0 00.808-.499zm7.089-7.041A2.622 2.622 0 0010.19 2.6l-.591.592.025.074A5.835 5.835 0 0011.02 5.48a5.835 5.835 0 002.287 1.42l.592-.591z" fill="#fff"/></svg>