<svg width="16" height="16" fill="none" xmlns="http://www.w3.org/2000/svg"><path d="M1.333 8.083c0-3.728 2.985-6.75 6.667-6.75s6.667 3.022 6.667 6.75v3.495c0 .545 0 .918-.096 1.246a2.346 2.346 0 01-1.231 1.459c-.305.147-.67.205-1.2.29l-.087.013c-.19.03-.35.056-.485.07-.14.014-.281.018-.427-.011a1.4 1.4 0 01-1.04-.9 1.486 1.486 0 01-.078-.425 9.114 9.114 0 01-.008-.496v-2.781c0-.284 0-.528.065-.737a1.402 1.402 0 011.018-.953c.211-.05.452-.03.731-.007l.062.005.073.006c.523.041.88.07 1.184.183.213.08.41.19.588.325v-.782c0-3.208-2.568-5.808-5.736-5.808-3.168 0-5.736 2.6-5.736 5.808v.782c.177-.135.375-.245.588-.325.304-.113.661-.142 1.184-.183l.073-.006.062-.005c.28-.023.52-.042.73.007.483.112.87.475 1.02.953.064.209.064.453.064.737v2.781c0 .194 0 .36-.008.495a1.484 1.484 0 01-.078.426 1.4 1.4 0 01-1.04.9 1.434 1.434 0 01-.427.01 8.974 8.974 0 01-.485-.069l-.086-.013c-.532-.085-.896-.143-1.201-.29a2.346 2.346 0 01-1.231-1.459c-.08-.27-.093-.572-.095-.974V8.083z" fill="#fff"/><path fill-rule="evenodd" clip-rule="evenodd" d="M8 3.833a.5.5 0 01.5.5v3.334a.5.5 0 01-1 0V4.333a.5.5 0 01.5-.5zm2 1a.5.5 0 01.5.5v1.334a.5.5 0 01-1 0V5.333a.5.5 0 01.5-.5zm-4 0a.5.5 0 01.5.5v1.334a.5.5 0 01-1 0V5.333a.5.5 0 01.5-.5z" fill="#fff"/></svg>