<svg width="18" height="18" fill="none" xmlns="http://www.w3.org/2000/svg"><path d="M15.3 4.05a1.35 1.35 0 11-2.7 0 1.35 1.35 0 012.7 0z" fill="#fff"/><path fill-rule="evenodd" clip-rule="evenodd" d="M9 13.5a4.5 4.5 0 100-9 4.5 4.5 0 000 9zm0-1.8a2.7 2.7 0 100-5.4 2.7 2.7 0 000 5.4z" fill="#fff"/><path fill-rule="evenodd" clip-rule="evenodd" d="M0 8.64c0-3.024 0-4.536.589-5.692a5.4 5.4 0 012.36-2.36C4.103 0 5.615 0 8.64 0h.72c3.024 0 4.536 0 5.692.589a5.4 5.4 0 012.36 2.36C18 4.103 18 5.615 18 8.64v.72c0 3.024 0 4.536-.589 5.692a5.4 5.4 0 01-2.36 2.36C13.897 18 12.385 18 9.36 18h-.72c-3.024 0-4.536 0-5.692-.589a5.4 5.4 0 01-2.36-2.36C0 13.897 0 12.385 0 9.36v-.72zM8.64 1.8h.72c1.542 0 2.59.001 3.4.068.79.064 1.193.18 1.474.324a3.6 3.6 0 011.574 1.574c.143.281.26.685.324 1.474.067.81.068 1.858.068 3.4v.72c0 1.542-.001 2.59-.068 3.4-.064.79-.18 1.193-.324 1.474a3.6 3.6 0 01-1.574 1.574c-.281.143-.685.26-1.474.324-.81.067-1.858.068-3.4.068h-.72c-1.542 0-2.59-.001-3.4-.068-.79-.064-1.193-.18-1.474-.324a3.6 3.6 0 01-1.574-1.574c-.143-.281-.26-.685-.324-1.474-.067-.81-.068-1.858-.068-3.4v-.72c0-1.542.001-2.59.068-3.4.064-.79.18-1.193.324-1.474a3.6 3.6 0 011.574-1.574c.281-.143.685-.26 1.474-.324.81-.067 1.858-.068 3.4-.068z" fill="#fff"/></svg>