<svg width="16" height="16" fill="none" xmlns="http://www.w3.org/2000/svg"><path fill-rule="evenodd" clip-rule="evenodd" d="M8 2.167a.5.5 0 01.5.5v1.6a.5.5 0 01-1 0v-1.6a.5.5 0 01.5-.5zm4.125 1.708a.5.5 0 010 .707l-1.132 1.132a.5.5 0 11-.707-.707l1.132-1.132a.5.5 0 01.707 0zm-8.25 0a.5.5 0 01.707 0l1.132 1.132a.5.5 0 01-.708.707l-1.13-1.132a.5.5 0 010-.707zM2.167 8a.5.5 0 01.5-.5h1.6a.5.5 0 010 1h-1.6a.5.5 0 01-.5-.5zm9.066 0a.5.5 0 01.5-.5h1.6a.5.5 0 110 1h-1.6a.5.5 0 01-.5-.5zm-5.52 2.286a.5.5 0 010 .707l-1.13 1.132a.5.5 0 11-.708-.707l1.132-1.132a.5.5 0 01.707 0zm4.573 0a.5.5 0 01.707 0l1.132 1.132a.5.5 0 01-.707.707l-1.132-1.132a.5.5 0 010-.707zM8 11.233a.5.5 0 01.5.5v1.6a.5.5 0 01-1 0v-1.6a.5.5 0 01.5-.5z" fill="color(display-p3 .9324 .5585 .2133)"/></svg>