<svg width="116" height="16" fill="none" xmlns="http://www.w3.org/2000/svg"><path d="M.598 15V.86H11.38c3.944 0 5.684 1.477 5.684 5.482v2.974c0 3.863-1.234 5.684-5.178 5.684H.598zM4.361 3.955v7.97h6.938c1.396 0 1.881-.93 1.881-2.407V6.16c0-1.84-.586-2.205-1.901-2.205H4.36zM22.628 15.02h-3.763V.86h3.763v14.16zm18.3-8.82l.02 3.702c0 1.66-.202 2.266-.303 2.61-.304.991-.93 1.76-2.003 2.144-.506.182-1.375.364-2.508.364H24.543v-3.095h10.903c1.436 0 1.74-.87 1.74-2.002v-.627H24.563l-.02-3.358c0-1.639.202-2.246.303-2.59.304-1.011.93-1.76 2.003-2.144.506-.202 1.375-.364 2.508-.364h10.68v3.095h-9.992c-1.456 0-1.74.87-1.74 2.003V6.2h12.623zM57.593.86v3.095H51.28V15H47.5V3.955h-6.312V.86h16.406zm17.283 7.768c-.222 1.457-.789 2.387-1.942 2.873l2.064 3.52h-4.269l-1.8-3.096h-6.574V15h-3.763V.86h11.591c2.812 0 4.228.85 4.673 3.095.101.546.142 1.659.142 2.347 0 .667-.02 1.72-.122 2.326zM62.355 3.955v4.693h7.484c.708 0 1.275-.586 1.275-1.274V5.23a1.27 1.27 0 00-1.275-1.275h-7.484zM80.522 15.02H76.76V.86h3.762v14.16zM99.045 3.955H86.402v2.428h10.681v3.095h-10.68V15H82.64V.86h16.405v3.095zM115.348.86l-3.297 10.863-3.014-.02V15h-3.783v-3.277h-3.014L98.943.86h3.843l2.286 7.586h4.127L111.505.86h3.843z" fill="#fff"/></svg>