<svg width="16" height="16" fill="none" xmlns="http://www.w3.org/2000/svg"><path d="M11.013 11c.116-.09.222-.196.434-.408l2.638-2.638c.064-.064.035-.173-.05-.203a2.888 2.888 0 01-1.096-.69 2.889 2.889 0 01-.69-1.095c-.03-.086-.14-.115-.203-.05L9.408 8.552a5.01 5.01 0 00-.409.434c-.107.138-.2.287-.274.445a5.011 5.011 0 00-.206.559l-.499 1.497a.389.389 0 00.492.492l1.497-.499c.284-.095.426-.142.56-.206.157-.075.306-.167.444-.274zm3.898-3.872a1.442 1.442 0 10-2.04-2.039l-.084.085a.349.349 0 00-.098.31 2.32 2.32 0 00.639 1.188c.308.309.637.473.887.56.125.043.23.067.301.08a.35.35 0 00.31-.099l.085-.085z" fill="color(display-p3 .6306 .6306 .6306)"/><path fill-rule="evenodd" clip-rule="evenodd" d="M2.781 2.114C2 2.895 2 4.153 2 6.667v2.666c0 2.514 0 3.772.781 4.553.781.78 2.038.78 4.552.78h1.334c2.514 0 3.77 0 4.552-.78.769-.769.78-1.998.781-4.433l-1.879 1.88c-.18.18-.327.327-.493.456a3.4 3.4 0 01-.63.39c-.19.09-.387.156-.629.236l-1.54.514a1.389 1.389 0 01-1.758-1.757l.514-1.541c.08-.242.146-.44.237-.63.106-.223.237-.434.389-.629.13-.166.277-.313.457-.493l3.497-3.497a2.434 2.434 0 011.727-.715c-.1-.687-.296-1.175-.673-1.553-.781-.78-2.038-.78-4.552-.78H7.333c-2.514 0-3.77 0-4.552.78zM4.833 6a.5.5 0 01.5-.5h4.334a.5.5 0 110 1H5.333a.5.5 0 01-.5-.5zm0 2.667a.5.5 0 01.5-.5H7a.5.5 0 010 1H5.333a.5.5 0 01-.5-.5zm0 2.666a.5.5 0 01.5-.5h1a.5.5 0 110 1h-1a.5.5 0 01-.5-.5z" fill="color(display-p3 .6306 .6306 .6306)"/></svg>