<svg width="20" height="20" fill="none" xmlns="http://www.w3.org/2000/svg"><path d="M5.217 17.824H5c-.785 0-1.178 0-1.422-.244s-.244-.637-.244-1.423v-.927c0-.432 0-.648.11-.84.112-.194.28-.29.614-.486 2.205-1.282 5.335-2.004 7.425-.757.14.083.267.184.374.306.466.522.432 1.31-.104 1.778a.832.832 0 01-.356.2c.1-.011.196-.025.287-.04.76-.12 1.397-.526 1.98-.967l1.507-1.138a1.573 1.573 0 011.85 0c.478.36.624.955.322 1.44-.353.565-.85 1.287-1.326 1.729-.477.442-1.188.837-1.769 1.117-.643.31-1.353.49-2.075.606a12.374 12.374 0 01-4.442-.098 12.527 12.527 0 00-2.514-.256zm.272-15.669c-.306.306-.42.728-.463 1.387a1.875 1.875 0 001.85-1.85c-.66.043-1.082.157-1.387.463zm9.023 0c-.305-.306-.728-.42-1.386-.463a1.875 1.875 0 001.849 1.85c-.043-.66-.157-1.081-.463-1.387zm0 5.69c-.305.306-.728.42-1.386.463a1.875 1.875 0 011.849-1.85c-.043.66-.157 1.082-.463 1.387zm-9.023 0c.305.306.727.42 1.386.463a1.875 1.875 0 00-1.85-1.85c.044.66.158 1.082.464 1.387z" fill="color(display-p3 .5653 .6037 1)"/><path fill-rule="evenodd" clip-rule="evenodd" d="M5 4.792c1.726 0 3.125-1.4 3.125-3.125h3.75c0 1.726 1.4 3.125 3.125 3.125v.416a3.125 3.125 0 00-3.125 3.125h-3.75A3.125 3.125 0 005 5.208v-.416zm5 1.041a.833.833 0 100-1.666.833.833 0 000 1.666z" fill="color(display-p3 .5653 .6037 1)"/></svg>