<svg width="12" height="12" fill="none" xmlns="http://www.w3.org/2000/svg"><path d="M3.726 1.356a.563.563 0 011.048 0l.58 1.473c.057.145.172.26.317.317l1.473.58a.563.563 0 010 1.048l-1.473.58a.563.563 0 00-.317.317l-.58 1.473a.563.563 0 01-1.048 0l-.58-1.473a.563.563 0 00-.317-.317l-1.473-.58a.563.563 0 010-1.048l1.473-.58a.563.563 0 00.317-.317l.58-1.473zm4.736 5.34a.31.31 0 01.576 0l.45 1.142a.31.31 0 00.174.174l1.142.45a.31.31 0 010 .576l-1.142.45a.31.31 0 00-.174.174l-.45 1.142a.31.31 0 01-.576 0l-.45-1.142a.31.31 0 00-.174-.174l-1.142-.45a.31.31 0 010-.576l1.142-.45a.31.31 0 00.174-.174l.45-1.142z" fill="#fff"/></svg>