<svg width="49" height="48" fill="none" xmlns="http://www.w3.org/2000/svg"><path fill-rule="evenodd" clip-rule="evenodd" d="M18.5 4.098c-.898.242-1.249.535-4.44 3.705-3.73 3.708-5.514 5.58-6.13 6.434-1.614 2.236-2.479 5.242-2.336 8.11.291 5.812 4.264 10.904 9.738 12.479 1.279.368 2.05.468 3.605.468 4.088.001 6.852-1.184 10.12-4.34 1.44-1.391 2.842-3.006 3.136-3.614.215-.444.234-.553.234-1.306 0-.762-.018-.86-.25-1.35a3.545 3.545 0 00-1.625-1.627c-.467-.23-.64-.272-1.212-.295-.74-.029-1.273.12-1.87.52-.176.119-1.204 1.059-2.283 2.09-1.08 1.03-2.212 2.04-2.516 2.243-1.03.69-2.21 1.019-3.617 1.01-.975-.008-1.457-.083-2.228-.351-1.673-.582-2.972-1.764-3.796-3.452-.597-1.224-.695-1.645-.696-3.011-.002-1.285.136-1.931.613-2.88.492-.977 1.18-1.76 4.804-5.462 4.085-4.174 4.255-4.36 4.538-4.953.178-.373.204-.528.2-1.173-.004-.893-.19-1.445-.691-2.06-.847-1.04-2.13-1.5-3.299-1.185zm9.548 8.615c-3.362.413-5.97 1.8-8.87 4.718-1.325 1.333-2.466 2.672-2.724 3.2-.195.396-.215.517-.215 1.3 0 .842.008.88.294 1.461.353.714.876 1.223 1.622 1.579.463.22.577.242 1.29.242.712 0 .828-.022 1.29-.241.543-.257.884-.554 3.3-2.872 1.494-1.432 1.86-1.727 2.649-2.127 1.024-.52 2.078-.697 3.475-.582 2.362.194 4.062 1.25 5.213 3.241 1.245 2.153 1.384 4.36.397 6.335-.559 1.117-1.487 2.169-5.725 6.49-1.688 1.721-3.189 3.275-3.337 3.454-.704.85-.757 2.252-.13 3.405.607 1.114 2.241 1.896 3.437 1.645.813-.17 1.073-.362 2.94-2.163 2.933-2.828 7.182-7.227 7.758-8.032 1.63-2.28 2.483-5.199 2.36-8.084-.157-3.657-1.631-6.863-4.342-9.44a12.99 12.99 0 00-7.134-3.46c-.755-.11-2.878-.151-3.548-.069z" fill="color(display-p3 .2863 .5804 .9255)"/></svg>