<svg width="48" height="48" fill="none" xmlns="http://www.w3.org/2000/svg"><path d="M4 24.248C4 13.065 12.954 4 24 4c11.045 0 20 9.065 20 20.248v10.487c0 1.634 0 2.754-.286 3.738a7.04 7.04 0 01-3.694 4.376c-.915.44-2.008.615-3.602.87l-.26.04c-.567.091-1.052.169-1.454.209-.418.041-.844.054-1.28-.033a4.201 4.201 0 01-3.122-2.7c-.153-.423-.207-.852-.232-1.276-.024-.409-.024-.905-.024-1.486v-8.345c0-.85-.002-1.583.193-2.21a4.207 4.207 0 013.056-2.86c.633-.147 1.354-.088 2.192-.02l.186.015.22.017c1.568.125 2.64.21 3.55.551.64.24 1.233.57 1.766.974v-2.347c0-9.622-7.705-17.423-17.21-17.423-9.503 0-17.208 7.8-17.208 17.423v2.347a6.95 6.95 0 011.766-.974c.91-.34 1.982-.426 3.55-.55l.22-.018.186-.015c.838-.068 1.559-.127 2.191.02a4.207 4.207 0 013.057 2.86c.195.627.194 1.36.193 2.21v8.345c0 .581 0 1.078-.024 1.486-.025.424-.079.853-.232 1.275a4.201 4.201 0 01-3.122 2.701c-.436.087-.863.074-1.28.033-.403-.04-.887-.118-1.454-.208l-.26-.042c-1.594-.254-2.687-.428-3.602-.869a7.04 7.04 0 01-3.694-4.376c-.237-.811-.278-1.715-.285-2.924L4 35.161V24.248z" fill="color(display-p3 .2902 .3529 1)"/><path fill-rule="evenodd" clip-rule="evenodd" d="M24 11.5a1.5 1.5 0 011.5 1.5v10a1.5 1.5 0 01-3 0V13a1.5 1.5 0 011.5-1.5zm6 3a1.5 1.5 0 011.5 1.5v4a1.5 1.5 0 01-3 0v-4a1.5 1.5 0 011.5-1.5zm-12 0a1.5 1.5 0 011.5 1.5v4a1.5 1.5 0 01-3 0v-4a1.5 1.5 0 011.5-1.5z" fill="color(display-p3 .2902 .3529 1)"/></svg>