<svg width="49" height="48" fill="none" xmlns="http://www.w3.org/2000/svg"><path d="M31.667 15a7 7 0 11-14 0 7 7 0 0114 0zm5 18c0 3.866-5.373 7-12 7-6.628 0-12-3.134-12-7s5.372-7 12-7c6.627 0 12 3.134 12 7zM14.91 10c.356 0 .702.035 1.037.101A9.954 9.954 0 0014.667 15c0 1.736.442 3.37 1.22 4.793-.315.059-.642.09-.976.09-2.829 0-5.122-2.213-5.122-4.942S12.082 10 14.91 10zm-3.349 27.972C10.426 36.614 9.667 34.948 9.667 33c0-1.889.713-3.512 1.791-4.846-3.81.295-6.791 2.378-6.791 4.905 0 2.55 3.034 4.649 6.894 4.913zM34.667 15c0 1.736-.443 3.37-1.222 4.793.317.059.643.09.977.09 2.83 0 5.123-2.213 5.123-4.942S37.25 10 34.422 10c-.354 0-.7.035-1.035.101A9.955 9.955 0 0134.666 15zm3.105 22.972c3.86-.264 6.895-2.363 6.895-4.913 0-2.527-2.983-4.61-6.792-4.905 1.078 1.334 1.792 2.957 1.792 4.846 0 1.948-.76 3.614-1.895 4.972z" fill="color(display-p3 .9324 .5585 .2133)"/></svg>